<svg width="100" height="100" viewBox="0 0 100 100" fill="none" xmlns="http://www.w3.org/2000/svg">
<g clip-path="url(#clip0_212_20)">
<path d="M49.7333 74.8002C49.7333 72.1169 51.8875 69.9669 54.575 69.9669C57.2583 69.9669 59.4083 72.1169 59.4083 74.8002C59.4105 75.4357 59.287 76.0654 59.045 76.6531C58.8029 77.2407 58.447 77.7747 57.9978 78.2242C57.5486 78.6738 57.015 79.0302 56.4276 79.2727C55.8401 79.5153 55.2105 79.6393 54.575 79.6377C53.9391 79.6404 53.309 79.5174 52.7209 79.2755C52.1327 79.0337 51.5983 78.6779 51.1482 78.2287C50.6982 77.7794 50.3415 77.2456 50.0987 76.6579C49.8558 76.0702 49.7317 75.4361 49.7333 74.8002ZM69.4167 74.8044C69.4167 72.1169 71.5708 69.9627 74.2542 69.9627C76.9375 69.9627 79.0917 72.1169 79.0917 74.8002C79.0917 77.4835 76.9375 79.6377 74.2583 79.6377C73.6224 79.6404 72.9923 79.5174 72.4042 79.2755C71.8161 79.0337 71.2816 78.6779 70.8316 78.2287C70.3815 77.7794 70.0248 77.2456 69.782 76.6579C69.5392 76.0702 69.415 75.4402 69.4167 74.8044ZM23.7917 74.8044C23.7917 72.1169 25.9458 69.9627 28.6292 69.9627C31.3125 69.9627 33.4625 72.1169 33.4625 74.8002C33.4625 77.4835 31.3125 79.6377 28.6292 79.6377C27.9936 79.6399 27.3639 79.5164 26.7763 79.2743C26.1887 79.0323 25.6547 78.6764 25.2051 78.2272C24.7555 77.778 24.3992 77.2443 24.1566 76.6569C23.914 76.0695 23.79 75.4399 23.7917 74.8044ZM4.10833 74.8044C4.10833 72.1169 6.2625 69.9627 8.94583 69.9627C11.6292 69.9627 13.7833 72.1169 13.7833 74.8002C13.7855 75.4361 13.6619 76.0661 13.4196 76.654C13.1773 77.2419 12.821 77.7761 12.3714 78.2257C11.9217 78.6754 11.3876 79.0316 10.7997 79.2739C10.2118 79.5163 9.58172 79.6399 8.94583 79.6377C8.31065 79.6393 7.6814 79.5155 7.09425 79.2731C6.5071 79.0308 5.97362 78.6749 5.52447 78.2257C5.07533 77.7766 4.71937 77.2431 4.47706 76.6559C4.23474 76.0688 4.10668 75.4395 4.10833 74.8044ZM43.9042 66.2544H39.6958V83.1835H43.9042V66.2544ZM13.75 83.1835H17.9583V66.2544H13.75V67.6127C12.2831 66.5918 10.5372 66.0476 8.75 66.0544C3.90833 66.0544 0 69.9627 0 74.8044C0 79.671 3.90833 83.5502 8.75 83.5502C10.6042 83.5502 12.325 82.9877 13.75 81.9919V83.1835ZM79.0583 83.1835H83.2667V66.2544H79.0583V67.6127C77.5914 66.5918 75.8455 66.0476 74.0583 66.0544C69.2167 66.0544 65.3083 69.9627 65.3083 74.8044C65.3045 75.9543 65.5282 77.0937 65.9666 78.1568C66.405 79.2199 67.0495 80.1857 67.8628 80.9987C68.6761 81.8116 69.6423 82.4556 70.7056 82.8935C71.7689 83.3314 72.9084 83.5546 74.0583 83.5502C75.9125 83.5502 77.6333 82.9877 79.0583 81.9919V83.1835ZM84.825 77.6835C84.9583 81.1002 87.875 83.5169 92.7417 83.5169C96.7208 83.5169 100 81.7919 100 77.9835C100 75.3335 98.5083 73.7752 95.0625 73.1085L92.3792 72.5835C90.6542 72.2502 89.4625 71.9169 89.4625 70.8919C89.4625 69.7669 90.6208 69.2669 92.0792 69.2669C94.2042 69.2669 95.0625 70.3294 95.1292 71.5877H99.3708C99.1375 68.2752 96.4875 66.0544 92.2125 66.0544C87.8083 66.0544 85.1875 68.471 85.1875 71.621C85.1875 75.4627 88.3042 76.0919 90.9875 76.5919L93.2083 76.9877C94.8 77.2877 95.4958 77.7502 95.4958 78.6794C95.4958 79.5085 94.7 80.3335 92.8083 80.3335C90.0583 80.3335 89.1667 78.9085 89.1333 77.6835H84.825ZM33.4333 60.4877V67.6127C31.9664 66.5918 30.2205 66.0476 28.4333 66.0544C23.5917 66.0544 19.6833 69.9627 19.6833 74.8044C19.6833 79.671 23.5917 83.5502 28.4333 83.5502C30.2833 83.5502 32.0083 82.9877 33.4333 81.9919V83.1835H37.6417V60.4877H33.4333ZM59.375 60.4877V67.6127C57.9081 66.5918 56.1622 66.0476 54.375 66.0544C49.5375 66.0544 45.625 69.9627 45.625 74.8044C45.6211 75.9543 45.8449 77.0937 46.2833 78.1568C46.7217 79.2199 47.3661 80.1857 48.1795 80.9987C48.9928 81.8116 49.959 82.4556 51.0223 82.8935C52.0856 83.3314 53.225 83.5546 54.375 83.5502C56.2292 83.5502 57.95 82.9877 59.375 81.9919V83.1835H63.5833V60.4877H59.375ZM10.9333 55.4877L13.7833 60.4877H33.4333L25.6458 47.0335L10.9375 55.4835L10.9333 55.4877ZM43.9042 64.696V60.4877H59.375L42.875 31.9252L28.1292 40.3752L39.6958 60.4877V64.696H43.9042ZM65.6417 60.4877H85.3208L59.875 16.4502L45.1625 24.9335L65.6417 60.4877Z" fill="white"/>
</g>
<defs>
<clipPath id="clip0_212_20">
<rect width="100" height="100" fill="white"/>
</clipPath>
</defs>
</svg>
