<svg width="88" height="88" viewBox="0 0 88 88" fill="none" xmlns="http://www.w3.org/2000/svg">
<path fill-rule="evenodd" clip-rule="evenodd" d="M44 66C56.1502 66 66 56.1502 66 44C66 31.8497 56.1502 22 44 22C31.8497 22 22 31.8497 22 44C22 56.1502 31.8497 66 44 66ZM44 58.6667C52.1 58.6667 58.6667 52.1 58.6667 44C58.6667 35.8998 52.1 29.3333 44 29.3333C35.8998 29.3333 29.3333 35.8998 29.3333 44C29.3333 52.1 35.8998 58.6667 44 58.6667Z" fill="white"/>
<path d="M65.9987 18.333C63.9736 18.333 62.332 19.9746 62.332 21.9997C62.332 24.0247 63.9736 25.6663 65.9987 25.6663C68.0238 25.6663 69.6654 24.0247 69.6654 21.9997C69.6654 19.9746 68.0238 18.333 65.9987 18.333Z" fill="white"/>
<path fill-rule="evenodd" clip-rule="evenodd" d="M6.06582 15.6792C3.66797 20.3853 3.66797 26.5459 3.66797 38.867V49.1337C3.66797 61.4548 3.66797 67.6155 6.06582 72.3213C8.17504 76.461 11.5406 79.8266 15.6802 81.9357C20.3862 84.3337 26.5468 84.3337 38.868 84.3337H49.1346C61.4557 84.3337 67.6165 84.3337 72.3223 81.9357C76.4619 79.8266 79.8276 76.461 81.9366 72.3213C84.3346 67.6155 84.3346 61.4548 84.3346 49.1337V38.867C84.3346 26.5459 84.3346 20.3853 81.9366 15.6792C79.8276 11.5396 76.4619 8.17406 72.3223 6.06485C67.6165 3.66699 61.4557 3.66699 49.1346 3.66699H38.868C26.5468 3.66699 20.3862 3.66699 15.6802 6.06485C11.5406 8.17406 8.17504 11.5396 6.06582 15.6792ZM49.1346 11.0003H38.868C32.5864 11.0003 28.3162 11.006 25.0156 11.2757C21.8005 11.5384 20.1564 12.0145 19.0094 12.5989C16.2497 14.005 14.006 16.2488 12.5999 19.0085C12.0155 20.1554 11.5393 21.7995 11.2767 25.0146C11.007 28.3152 11.0013 32.5854 11.0013 38.867V49.1337C11.0013 55.4154 11.007 59.6852 11.2767 62.986C11.5393 66.2013 12.0155 67.8454 12.5999 68.9923C14.006 71.7519 16.2497 73.9955 19.0094 75.4016C20.1564 75.9861 21.8005 76.4624 25.0156 76.725C28.3162 76.9945 32.5864 77.0003 38.868 77.0003H49.1346C55.4164 77.0003 59.6862 76.9945 62.9869 76.725C66.2022 76.4624 67.8464 75.9861 68.9933 75.4016C71.7528 73.9955 73.9965 71.7519 75.4026 68.9923C75.9871 67.8454 76.4634 66.2013 76.7259 62.986C76.9954 59.6852 77.0013 55.4154 77.0013 49.1337V38.867C77.0013 32.5854 76.9954 28.3152 76.7259 25.0146C76.4634 21.7995 75.9871 20.1554 75.4026 19.0085C73.9965 16.2488 71.7528 14.005 68.9933 12.5989C67.8464 12.0145 66.2022 11.5384 62.9869 11.2757C59.6862 11.006 55.4164 11.0003 49.1346 11.0003Z" fill="white"/>
</svg>
