<svg width="88" height="88" viewBox="0 0 88 88" fill="none" xmlns="http://www.w3.org/2000/svg">
<path d="M23.833 29.3335C26.8706 29.3335 29.333 26.8711 29.333 23.8335C29.333 20.7959 26.8706 18.3335 23.833 18.3335C20.7954 18.3335 18.333 20.7959 18.333 23.8335C18.333 26.8711 20.7954 29.3335 23.833 29.3335Z" fill="white"/>
<path d="M18.333 36.6667C18.333 34.6416 19.9746 33 21.9997 33H25.6663C27.6914 33 29.333 34.6416 29.333 36.6667V66C29.333 68.0251 27.6914 69.6667 25.6663 69.6667H21.9997C19.9746 69.6667 18.333 68.0251 18.333 66V36.6667Z" fill="white"/>
<path d="M40.3337 69.6667H44.0003C46.0254 69.6667 47.667 68.0251 47.667 66V49.5C47.667 44 58.667 40.3333 58.667 47.6667V66.0015C58.667 68.0266 60.3086 69.6667 62.3337 69.6667H66.0003C68.0254 69.6667 69.667 68.0251 69.667 66V44C69.667 36.6667 64.167 33 56.8337 33C49.5003 33 47.667 38.5 47.667 38.5V36.6667C47.667 34.6416 46.0254 33 44.0003 33H40.3337C38.3086 33 36.667 34.6416 36.667 36.6667V66C36.667 68.0251 38.3086 69.6667 40.3337 69.6667Z" fill="white"/>
<path fill-rule="evenodd" clip-rule="evenodd" d="M73.3337 3.6665C79.409 3.6665 84.3337 8.59139 84.3337 14.6665V73.3332C84.3337 79.4085 79.409 84.3332 73.3337 84.3332H14.667C8.59188 84.3332 3.66699 79.4085 3.66699 73.3332V14.6665C3.66699 8.59139 8.59188 3.6665 14.667 3.6665H73.3337ZM73.3337 10.9998C75.3588 10.9998 77.0003 12.6415 77.0003 14.6665V73.3332C77.0003 75.3583 75.3588 76.9998 73.3337 76.9998H14.667C12.642 76.9998 11.0003 75.3583 11.0003 73.3332V14.6665C11.0003 12.6415 12.642 10.9998 14.667 10.9998H73.3337Z" fill="white"/>
</svg>
