<svg width="100" height="100" viewBox="0 0 100 100" fill="none" xmlns="http://www.w3.org/2000/svg">
<path d="M53.6854 25.6424C53.3596 25.6927 53.0463 26.8926 52.4165 27.5177C51.9559 27.9689 51.3809 27.9407 51.0755 28.4984C50.9596 28.7068 50.9971 29.0624 50.8656 29.4039C50.6086 30.087 49.7032 30.148 49.7032 30.8922C49.7 31.6959 50.4583 31.8494 51.1146 32.4196C51.627 32.8786 51.6771 33.195 52.2974 33.4174C52.827 33.5977 53.6149 33.0086 54.3246 33.2201C54.9074 33.3941 55.465 33.5193 55.5967 34.1178C55.7125 34.6692 55.5888 35.5245 54.8823 35.4259C54.6442 35.3992 53.6118 35.0514 52.3429 35.1861C50.8123 35.3601 49.0655 35.8597 48.8948 37.5659C48.8008 38.5199 49.9804 39.6447 51.1194 39.416C51.9073 39.2608 51.5345 38.332 51.9637 37.8807C52.5261 37.3027 55.7125 39.8985 58.675 39.8985C59.922 39.8985 60.8494 39.5836 61.7707 38.6186C61.8567 38.545 61.9617 38.3867 62.0949 38.3773C62.2202 38.3867 62.4395 38.5104 62.5116 38.5637C64.8975 40.4812 66.7006 44.3273 75.4689 44.3727C76.7018 44.3789 78.1069 44.968 79.2537 46.0144C80.2767 46.9607 80.8752 48.4316 81.4563 49.9246C82.3336 52.1649 83.9065 54.344 86.2908 56.7691C86.4209 56.8991 88.3838 58.425 88.5404 58.5394C88.5655 58.555 88.7097 58.8996 88.6596 59.0923C88.6016 60.5461 88.3901 64.7743 91.542 64.9654C92.3128 65.0046 92.1106 64.4626 92.1106 64.0897C92.1092 63.3534 91.9744 62.6218 92.363 61.8683C92.894 60.8313 91.2366 60.3534 91.2852 58.1116C91.3196 56.4401 89.9159 56.7251 89.2031 55.4515C88.7926 54.7137 88.4276 54.3221 88.4543 53.4196C88.6141 48.3409 87.3733 45.004 86.7545 44.1847C86.2721 43.5659 85.8726 43.32 86.3143 43.0332C88.9447 41.2959 89.5415 39.6791 89.5415 39.6791C90.9404 36.3909 92.1985 33.3876 93.9326 32.0656C94.282 31.7929 95.1781 31.1241 95.728 30.8608C97.3462 30.0979 98.1985 29.6358 98.6685 29.1783C99.4126 28.453 100 26.9412 99.2872 26.0248C98.4005 24.8936 96.8669 25.7913 96.1901 26.1923C91.3541 29.0624 90.6413 34.1255 88.9665 37.0332C87.6303 39.3564 85.4574 41.0625 83.5149 41.2019C82.0579 41.3099 80.4882 41.0154 78.9247 40.3293C75.1227 38.6625 73.0421 36.51 72.5519 36.1294C71.5304 35.3413 63.6003 27.5569 57.1757 27.2389C57.1757 27.2389 56.3784 25.6426 56.1778 25.6159C55.7078 25.5563 55.227 26.5699 54.8823 26.6875C54.558 26.7955 54.0129 25.5891 53.6854 25.6424ZM25.4023 72.1029C24.7975 72.0887 24.2837 71.5921 24.2837 70.978L24.2853 50.9382H17.6806V73.0286C17.6806 74.1112 18.5578 74.9948 19.634 74.9948H31.1783C32.2623 74.9948 33.1287 74.1112 33.1287 73.0286V50.9382H26.5302L26.5239 70.978C26.5239 71.5921 26.01 72.0887 25.4023 72.1029ZM47.5162 50.9382H37.5198C36.3371 50.9382 35.3736 51.9001 35.3736 53.0954V74.9947H41.9844V54.9065C41.9891 54.2908 42.4873 53.8036 43.1015 53.8036C43.7187 53.8036 44.2137 54.2798 44.2278 54.8893V74.9948H50.8122V54.8891C50.82 54.2797 51.315 53.8035 51.9307 53.8035C52.5417 53.8035 53.0462 54.2907 53.0509 54.9064V74.9948H59.6618V53.0954C59.6618 51.9001 58.6968 50.9382 57.5141 50.9382H47.5162ZM8.8418 54.9487C8.84652 54.2797 8.30137 53.8035 7.72327 53.8035H6.6016V65.9712H7.72327C8.30609 65.9712 8.84663 65.5074 8.8418 64.8417V54.9487ZM13.2737 68.9492H6.6016V74.9948H0V50.9382H13.3161C14.5082 50.9382 15.4387 51.9064 15.4387 53.1049V66.7827C15.4387 67.9828 14.4722 68.9492 13.2737 68.9492ZM82.3164 69.6151C80.9895 69.6151 79.8756 70.7618 79.8756 72.1514C79.8756 73.5457 80.9895 74.683 82.3587 74.683C83.717 74.683 84.8167 73.5457 84.8167 72.1514C84.8167 70.7586 83.7169 69.6151 82.3586 69.6151H82.3164ZM85.2898 72.1436C85.2898 73.7774 83.9801 75.106 82.3587 75.106C80.72 75.106 79.4041 73.787 79.4041 72.1436C79.4041 70.5315 80.72 69.1843 82.3101 69.1843C83.9801 69.1843 85.2898 70.4909 85.2898 72.1436Z" fill="white"/>
<path d="M82.0536 71.9558C82.5127 71.9558 82.754 71.7929 82.754 71.4671C82.754 71.1772 82.5205 71.0285 82.074 71.0285H81.9424V71.9558H82.0536ZM83.7441 73.8577H82.956L81.9424 72.5088V73.8577H81.2986V70.4472H81.9754C82.895 70.4472 83.3837 70.795 83.3837 71.4592C83.3837 71.9025 83.0955 72.2959 82.6928 72.4133L82.6458 72.4306L83.7441 73.8577ZM70.7461 65.9762V54.8989C70.7304 54.2863 70.2369 53.8164 69.6213 53.8164C69.0118 53.8164 68.5074 54.3051 68.5028 54.9161V65.9762H70.7461ZM70.7461 74.9951V68.9558H68.5028V74.9951H61.9043V53.0957C61.9043 51.9004 62.8676 50.9385 64.0505 50.9385H75.1983C76.3842 50.9385 77.3477 51.9004 77.3477 53.0957V74.995L70.7461 74.9951Z" fill="white"/>
</svg>
