
<svg width="88" height="88" viewBox="0 0 88 88" fill="none" xmlns="http://www.w3.org/2000/svg">
<path d="M22.0513 29.3558C22.4703 26.0421 26.7768 21.5385 30.1946 22.0382L30.1891 22.0328C33.5152 22.6648 36.1482 28.3896 37.6328 30.9637C38.6848 32.8314 38.0017 34.7237 37.0205 35.5222C35.6968 36.589 33.627 38.0611 34.0612 39.5391C34.8333 42.1667 44 51.3333 48.5085 53.9392C50.215 54.9256 51.4525 52.3241 52.5092 50.9912C53.277 49.966 55.1709 49.3533 57.0343 50.3653C59.8173 51.986 62.4389 53.8696 64.8633 55.99C66.0741 57.002 66.3582 58.4976 65.5193 60.0783C64.0416 62.8624 59.7678 66.5339 56.6654 65.7877C51.2468 64.4849 29.3333 55.99 22.2946 31.3794C21.8987 30.2151 21.9984 29.7749 22.0513 29.3558Z" fill="white"/>
<path fill-rule="evenodd" clip-rule="evenodd" d="M44.0013 84.3337C39.5148 84.3337 37.0324 83.8522 33.0013 82.5003L25.2809 86.3606C20.4049 88.7986 14.668 85.2529 14.668 79.8013V71.5003C6.77199 64.1377 3.66797 55.6482 3.66797 44.0003C3.66797 21.7248 21.7258 3.66699 44.0013 3.66699C66.2767 3.66699 84.3346 21.7248 84.3346 44.0003C84.3346 66.2757 66.2767 84.3337 44.0013 84.3337ZM22.0013 68.3114L19.6691 66.1367C13.5345 60.4167 11.0013 54.0217 11.0013 44.0003C11.0013 25.7749 25.7759 11.0003 44.0013 11.0003C62.2268 11.0003 77.0013 25.7749 77.0013 44.0003C77.0013 62.2259 62.2268 77.0003 44.0013 77.0003C40.3871 77.0003 38.692 76.674 35.3331 75.5476L32.4457 74.5792L22.0013 79.8013V68.3114Z" fill="white"/>
</svg>